HIERARCHY
ROOT mixamorig:Hips
{
	OFFSET 0.000000 201.639420 0.000000
	CHANNELS 6 Xposition Yposition Zposition Xrotation Yrotation Zrotation
	JOINT mixamorig:Spine
	{
		OFFSET 0.006200 19.524994 -2.481800
		CHANNELS 3 Xrotation Yrotation Zrotation
		JOINT mixamorig:Spine1
		{
			OFFSET -0.000900 22.835007 -2.825400
			CHANNELS 3 Xrotation Yrotation Zrotation
			JOINT mixamorig:Spine2
			{
				OFFSET -0.020600 26.552490 -3.193300
				CHANNELS 3 Xrotation Yrotation Zrotation
				JOINT mixamorig:Neck
				{
					OFFSET -0.060000 30.701813 1.352200
					CHANNELS 3 Xrotation Yrotation Zrotation
					JOINT mixamorig:Head
					{
						OFFSET -0.087200 22.547607 3.670900
						CHANNELS 3 Xrotation Yrotation Zrotation
						JOINT mixamorig:HeadTop_End
						{
							OFFSET -0.830600 40.355194 7.893500
							CHANNELS 3 Xrotation Yrotation Zrotation
							End Site
							{
								OFFSET 0.000000 30.592346 0.000000
							}
						}
						JOINT mixamorig:RightEye
						{
							OFFSET -6.302100 18.118591 16.197100
							CHANNELS 3 Xrotation Yrotation Zrotation
							End Site
							{
								OFFSET 0.000000 30.592346 0.000000
							}
						}
						JOINT mixamorig:LeftEye
						{
							OFFSET 6.741500 18.382690 16.401899
							CHANNELS 3 Xrotation Yrotation Zrotation
							End Site
							{
								OFFSET 0.000000 30.592346 0.000000
							}
						}
					}
				}
				JOINT mixamorig:LeftShoulder
				{
					OFFSET 11.924900 18.230499 1.425400
					CHANNELS 3 Xrotation Yrotation Zrotation
					JOINT mixamorig:LeftArm
					{
						OFFSET 25.435989 -0.697632 -5.229300
						CHANNELS 3 Xrotation Yrotation Zrotation
						JOINT mixamorig:LeftForeArm
						{
							OFFSET 54.684776 0.000000 0.000000
							CHANNELS 3 Xrotation Yrotation Zrotation
							JOINT mixamorig:LeftHand
							{
								OFFSET 55.098175 0.000000 0.000000
								CHANNELS 3 Xrotation Yrotation Zrotation
								JOINT mixamorig:LeftHandMiddle1
								{
									OFFSET 23.369751 0.000000 0.000000
									CHANNELS 3 Xrotation Yrotation Zrotation
									JOINT mixamorig:LeftHandMiddle2
									{
										OFFSET 6.378677 0.000000 0.000000
										CHANNELS 3 Xrotation Yrotation Zrotation
										JOINT mixamorig:LeftHandMiddle3
										{
											OFFSET 6.148331 0.000000 0.000000
											CHANNELS 3 Xrotation Yrotation Zrotation
											JOINT mixamorig:LeftHandMiddle4
											{
												OFFSET 6.582504 0.000000 0.000000
												CHANNELS 3 Xrotation Yrotation Zrotation
												End Site
												{
													OFFSET -1.168900 6.395691 1.028606
												}
											}
										}
									}
								}
								JOINT mixamorig:LeftHandThumb1
								{
									OFFSET 7.235672 -3.848206 5.434273
									CHANNELS 3 Xrotation Yrotation Zrotation
									JOINT mixamorig:LeftHandThumb2
									{
										OFFSET 6.568451 -3.792297 3.792300
										CHANNELS 3 Xrotation Yrotation Zrotation
										JOINT mixamorig:LeftHandThumb3
										{
											OFFSET 6.063080 -3.500519 3.500518
											CHANNELS 3 Xrotation Yrotation Zrotation
											JOINT mixamorig:LeftHandThumb4
											{
												OFFSET 4.793182 -2.767334 2.767349
												CHANNELS 3 Xrotation Yrotation Zrotation
												End Site
												{
													OFFSET 0.101639 6.054260 1.275483
												}
											}
										}
									}
								}
								JOINT mixamorig:LeftHandIndex1
								{
									OFFSET 23.101074 -0.309540 4.992809
									CHANNELS 3 Xrotation Yrotation Zrotation
									JOINT mixamorig:LeftHandIndex2
									{
										OFFSET 6.226883 0.000000 0.000000
										CHANNELS 3 Xrotation Yrotation Zrotation
										JOINT mixamorig:LeftHandIndex3
										{
											OFFSET 6.094330 0.000000 0.000000
											CHANNELS 3 Xrotation Yrotation Zrotation
											JOINT mixamorig:LeftHandIndex4
											{
												OFFSET 5.482605 0.000000 0.000000
												CHANNELS 3 Xrotation Yrotation Zrotation
												End Site
												{
													OFFSET -1.427902 5.233032 0.797164
												}
											}
										}
									}
								}
								JOINT mixamorig:LeftHandRing1
								{
									OFFSET 22.299240 0.021149 -3.964172
									CHANNELS 3 Xrotation Yrotation Zrotation
									JOINT mixamorig:LeftHandRing2
									{
										OFFSET 6.321869 0.000000 0.000000
										CHANNELS 3 Xrotation Yrotation Zrotation
										JOINT mixamorig:LeftHandRing3
										{
											OFFSET 5.899796 0.000000 0.000000
											CHANNELS 3 Xrotation Yrotation Zrotation
											JOINT mixamorig:LeftHandRing4
											{
												OFFSET 6.517899 0.000000 0.000000
												CHANNELS 3 Xrotation Yrotation Zrotation
												End Site
												{
													OFFSET -1.637299 6.232208 0.980890
												}
											}
										}
									}
								}
								JOINT mixamorig:LeftHandPinky1
								{
									OFFSET 20.463791 -0.302338 -8.562233
									CHANNELS 3 Xrotation Yrotation Zrotation
									JOINT mixamorig:LeftHandPinky2
									{
										OFFSET 6.908646 0.000000 0.000000
										CHANNELS 3 Xrotation Yrotation Zrotation
										JOINT mixamorig:LeftHandPinky3
										{
											OFFSET 4.622849 0.000000 0.000000
											CHANNELS 3 Xrotation Yrotation Zrotation
											JOINT mixamorig:LeftHandPinky4
											{
												OFFSET 5.216080 0.000000 0.000000
												CHANNELS 3 Xrotation Yrotation Zrotation
												End Site
												{
													OFFSET -0.606308 5.116241 0.814926
												}
											}
										}
									}
								}
							}
						}
					}
				}
				JOINT mixamorig:RightShoulder
				{
					OFFSET -12.001300 18.284088 1.348900
					CHANNELS 3 Xrotation Yrotation Zrotation
					JOINT mixamorig:RightArm
					{
						OFFSET -25.308500 -0.751312 -5.164599
						CHANNELS 3 Xrotation Yrotation Zrotation
						JOINT mixamorig:RightForeArm
						{
							OFFSET -54.684429 0.000000 0.000000
							CHANNELS 3 Xrotation Yrotation Zrotation
							JOINT mixamorig:RightHand
							{
								OFFSET -55.150291 0.000000 0.000000
								CHANNELS 3 Xrotation Yrotation Zrotation
								JOINT mixamorig:RightHandMiddle1
								{
									OFFSET -23.317566 0.000000 0.000000
									CHANNELS 3 Xrotation Yrotation Zrotation
									JOINT mixamorig:RightHandMiddle2
									{
										OFFSET -6.378403 0.000000 0.000000
										CHANNELS 3 Xrotation Yrotation Zrotation
										JOINT mixamorig:RightHandMiddle3
										{
											OFFSET -6.148193 0.000000 0.000000
											CHANNELS 3 Xrotation Yrotation Zrotation
											JOINT mixamorig:RightHandMiddle4
											{
												OFFSET -6.583389 0.000000 0.000000
												CHANNELS 3 Xrotation Yrotation Zrotation
												End Site
												{
													OFFSET 1.171692 6.395905 1.029786
												}
											}
										}
									}
								}
								JOINT mixamorig:RightHandThumb1
								{
									OFFSET -7.190521 -3.860474 5.435846
									CHANNELS 3 Xrotation Yrotation Zrotation
									JOINT mixamorig:RightHandThumb2
									{
										OFFSET -6.567429 -3.791718 3.791708
										CHANNELS 3 Xrotation Yrotation Zrotation
										JOINT mixamorig:RightHandThumb3
										{
											OFFSET -6.062469 -3.500153 3.500166
											CHANNELS 3 Xrotation Yrotation Zrotation
											JOINT mixamorig:RightHandThumb4
											{
												OFFSET -4.792618 -2.767029 2.767022
												CHANNELS 3 Xrotation Yrotation Zrotation
												End Site
												{
													OFFSET -0.100327 6.053253 1.276754
												}
											}
										}
									}
								}
								JOINT mixamorig:RightHandIndex1
								{
									OFFSET -23.048981 -0.310791 4.992554
									CHANNELS 3 Xrotation Yrotation Zrotation
									JOINT mixamorig:RightHandIndex2
									{
										OFFSET -6.227539 0.000000 0.000000
										CHANNELS 3 Xrotation Yrotation Zrotation
										JOINT mixamorig:RightHandIndex3
										{
											OFFSET -6.095047 0.000000 0.000000
											CHANNELS 3 Xrotation Yrotation Zrotation
											JOINT mixamorig:RightHandIndex4
											{
												OFFSET -5.484772 0.000000 0.000000
												CHANNELS 3 Xrotation Yrotation Zrotation
												End Site
												{
													OFFSET 1.420593 5.237305 0.797056
												}
											}
										}
									}
								}
								JOINT mixamorig:RightHandRing1
								{
									OFFSET -22.246323 0.020569 -3.963762
									CHANNELS 3 Xrotation Yrotation Zrotation
									JOINT mixamorig:RightHandRing2
									{
										OFFSET -6.322128 0.000000 0.000000
										CHANNELS 3 Xrotation Yrotation Zrotation
										JOINT mixamorig:RightHandRing3
										{
											OFFSET -5.900024 0.000000 0.000000
											CHANNELS 3 Xrotation Yrotation Zrotation
											JOINT mixamorig:RightHandRing4
											{
												OFFSET -6.518356 0.000000 0.000000
												CHANNELS 3 Xrotation Yrotation Zrotation
												End Site
												{
													OFFSET 1.636398 6.232697 0.982186
												}
											}
										}
									}
								}
								JOINT mixamorig:RightHandPinky1
								{
									OFFSET -20.411011 -0.303314 -8.561701
									CHANNELS 3 Xrotation Yrotation Zrotation
									JOINT mixamorig:RightHandPinky2
									{
										OFFSET -6.907349 0.000000 0.000000
										CHANNELS 3 Xrotation Yrotation Zrotation
										JOINT mixamorig:RightHandPinky3
										{
											OFFSET -4.623840 0.000000 0.000000
											CHANNELS 3 Xrotation Yrotation Zrotation
											JOINT mixamorig:RightHandPinky4
											{
												OFFSET -5.218353 0.000000 0.000000
												CHANNELS 3 Xrotation Yrotation Zrotation
												End Site
												{
													OFFSET 0.602097 5.118835 0.816273
												}
											}
										}
									}
								}
							}
						}
					}
				}
			}
		}
	}
	JOINT mixamorig:LeftUpLeg
	{
		OFFSET 18.168400 -13.561905 -0.039000
		CHANNELS 3 Xrotation Yrotation Zrotation
		JOINT mixamorig:LeftLeg
		{
			OFFSET 0.577358 -80.825211 -3.695000
			CHANNELS 3 Xrotation Yrotation Zrotation
			JOINT mixamorig:LeftFoot
			{
				OFFSET -0.577356 -83.370262 -6.520700
				CHANNELS 3 Xrotation Yrotation Zrotation
				JOINT mixamorig:LeftToeBase
				{
					OFFSET 0.750401 -20.798306 25.135401
					CHANNELS 3 Xrotation Yrotation Zrotation
					JOINT mixamorig:LeftToe_End
					{
						OFFSET -0.000500 0.001200 19.917799
						CHANNELS 3 Xrotation Yrotation Zrotation
						End Site
						{
							OFFSET 0.000000 19.917805 0.000000
						}
					}
				}
			}
		}
	}
	JOINT mixamorig:RightUpLeg
	{
		OFFSET -18.162500 -13.585098 -0.041000
		CHANNELS 3 Xrotation Yrotation Zrotation
		JOINT mixamorig:RightLeg
		{
			OFFSET -0.595024 -80.945297 -3.631900
			CHANNELS 3 Xrotation Yrotation Zrotation
			JOINT mixamorig:RightFoot
			{
				OFFSET 0.595024 -83.218193 -6.561200
				CHANNELS 3 Xrotation Yrotation Zrotation
				JOINT mixamorig:RightToeBase
				{
					OFFSET -0.753601 -20.807106 25.115000
					CHANNELS 3 Xrotation Yrotation Zrotation
					JOINT mixamorig:RightToe_End
					{
						OFFSET 0.000299 0.001700 19.918200
						CHANNELS 3 Xrotation Yrotation Zrotation
						End Site
						{
							OFFSET 0.000000 19.918203 0.000000
						}
					}
				}
			}
		}
	}
}
MOTION
Frames: 4
Frame Time: 0.033333
-1.887638 190.801590 207.182678 -4.249654 1.964502 -6.947924 0.081292 -5.976877 2.572305 2.330639 -0.681550 1.625651 2.350411 -0.702100 1.598684 -5.973301 -1.673161 0.751501 0.222641 12.218795 1.501359 -0.000000 0.000000 0.000000 -0.000000 0.000000 0.000000 -0.000000 0.000000 0.000000 2.244133 -10.451425 -7.680053 -14.446036 15.252598 -64.940032 -0.000007 -49.489194 -0.000011 23.252706 15.592407 -5.803366 2.846843 7.591080 -24.902542 1.224011 3.923935 -34.637675 0.607757 2.833151 -24.209645 0.000001 0.000001 0.000001 -4.040723 14.104705 17.511664 11.661564 23.784115 -7.444817 2.972946 2.531878 -1.872578 -0.000001 0.000000 0.000002 -0.396969 1.267242 -31.259706 0.835051 3.291681 -28.462394 0.349352 2.169396 -18.294255 0.000002 -0.000000 -0.000001 2.571644 8.542741 -18.865092 1.986328 4.842334 -44.586956 0.017763 0.495164 -4.106674 -0.000002 -0.000001 -0.000002 1.279139 8.410771 -8.816961 1.200187 -0.194841 -34.511908 0.755569 3.140889 -27.045816 -0.000005 0.000001 0.000002 1.407101 5.231444 7.963825 4.241698 -39.104455 50.994466 0.000003 15.723411 -0.000001 10.188282 9.833266 -16.739580 16.073267 -6.973641 89.840770 5.745724 -6.843898 80.009785 0.243692 -3.032433 24.228672 0.000001 0.000001 -0.000002 -10.929393 -15.795816 -35.427658 23.796972 -21.851898 14.806595 -3.352397 7.103684 -2.398763 -0.000002 -0.000003 0.000001 -0.097795 -3.812934 58.241843 6.549016 -6.936787 86.698344 2.765282 -5.552978 52.917888 -0.000002 -0.000000 -0.000003 15.480552 -13.772997 57.091427 5.173337 -6.718802 75.165310 -0.100807 -3.431402 25.828958 0.000000 -0.000000 0.000002 8.428516 -18.147983 26.490771 3.502476 -6.037279 60.209128 0.933128 -3.484403 29.975959 -0.000001 0.000001 0.000000 -4.791997 10.426149 8.738262 58.014056 -7.180114 2.566737 14.822735 -4.631382 -17.736441 -22.584727 -2.858856 13.890040 -0.000000 0.000000 0.000000 -17.293112 -6.597179 14.424779 28.280948 0.526423 2.937382 -5.671013 0.889754 -11.720698 -3.328099 -0.000001 -0.000000 0.000000 0.000000 0.000000 
-1.958076 188.988800 213.938934 -4.885690 1.706424 -9.397732 -0.810647 -5.166353 4.983466 2.941649 -0.513297 1.595954 2.954027 -0.546302 1.566966 -5.579344 -1.787542 0.860151 0.478697 11.996543 0.974374 -0.000000 0.000000 0.000000 -0.000000 0.000000 0.000000 -0.000000 0.000000 0.000000 2.191348 -10.139986 -7.664565 -12.401713 25.199377 -70.189749 0.000017 -48.033606 0.000015 14.950746 5.276050 11.435526 2.745452 6.584946 -29.916259 0.999537 3.577983 -31.207401 0.624658 2.870428 -24.549648 0.000004 0.000002 -0.000002 -4.170364 12.341841 14.548253 11.667922 23.795986 -7.447738 4.139936 5.498991 -2.524177 0.000001 0.000001 -0.000002 0.221233 2.387864 -33.086755 0.840611 3.301910 -28.559212 0.355748 2.188622 -18.462444 -0.000002 0.000000 0.000001 2.445069 7.273932 -22.226158 1.705913 4.541305 -41.159806 0.023056 0.564202 -4.680547 0.000000 0.000001 0.000001 2.580728 10.304358 -14.909398 0.735426 -0.976132 -26.978202 0.774607 3.177862 -27.391434 -0.000001 -0.000004 -0.000004 1.590085 7.470252 9.009951 1.560000 -36.178556 51.805492 -0.000003 13.074139 0.000006 13.449787 12.687152 -28.525363 17.993162 -5.451764 98.021377 5.685253 -6.833052 79.501961 0.226174 -3.158168 25.052680 0.000002 -0.000000 0.000001 -11.245766 -15.267093 -36.621596 25.500684 -24.796409 15.769693 -2.976125 6.069895 -2.457203 0.000001 0.000001 -0.000001 1.544269 -5.092300 63.824996 6.319178 -6.919812 84.793103 2.986580 -5.712725 55.172185 -0.000000 -0.000000 -0.000001 17.021419 -13.394911 61.441807 4.873425 -6.632685 72.585827 -0.233203 -3.361362 24.954600 0.000001 0.000000 0.000001 10.360197 -19.325098 30.211925 3.176263 -5.839480 57.056812 0.894138 -3.416046 29.328139 0.000000 0.000000 0.000001 -15.079577 7.473004 12.328824 74.261498 -1.920703 2.922810 23.512313 -0.545872 -15.684703 1.078902 -0.000000 0.000011 0.000000 -0.000000 0.000003 -15.162755 -7.817399 15.885061 30.957727 1.875552 4.920791 -9.285745 1.412934 -13.243124 -2.491490 0.000004 0.000002 -0.000000 -0.000000 0.000000 
-2.109825 187.850601 220.090805 -4.912818 1.868870 -10.310027 -1.597485 -4.266340 5.804340 3.317954 -0.361729 1.626698 3.327001 -0.399677 1.599749 -5.211014 -1.977025 1.062240 0.859206 11.347262 0.958800 0.000001 -0.000000 -0.000000 0.000001 -0.000000 -0.000000 0.000001 -0.000000 -0.000000 2.109906 -9.829133 -7.577858 -8.707653 33.037577 -74.893974 -0.000009 -46.514196 -0.000023 10.432412 -6.186302 26.473308 2.196760 5.863736 -27.693113 0.668379 2.964153 -25.408708 0.611007 2.840419 -24.275894 0.000002 0.000004 -0.000001 -3.908618 11.985771 11.711865 11.362493 23.139861 -7.252413 4.807107 7.093467 -2.890363 -0.000001 0.000000 0.000000 0.074458 1.651307 -24.338452 0.856447 3.330795 -28.832947 0.365170 2.216632 -18.707591 -0.000001 -0.000004 0.000001 1.813064 6.077319 -20.377909 1.292434 4.020949 -35.625331 0.028335 0.625421 -5.189696 -0.000001 0.000002 0.000002 3.509287 11.291778 -18.600156 0.395634 -1.759595 -19.905634 0.804695 3.235177 -27.929255 -0.000002 0.000002 0.000004 1.761975 9.464734 9.843132 -1.195291 -32.415887 54.057836 0.000003 11.333570 -0.000010 17.199799 14.453812 -39.315771 19.023098 -5.435649 97.350802 4.888272 -6.637290 72.714235 -0.050506 -3.027494 23.278495 0.000000 -0.000001 0.000002 -11.596959 -14.433474 -37.596223 26.787693 -26.909893 16.507191 -2.772668 5.498154 -2.486477 0.000002 0.000000 -0.000000 2.584385 -5.595703 63.561296 5.412031 -6.777069 77.196560 2.885285 -5.641250 54.148193 -0.000001 0.000001 -0.000004 17.272445 -13.785987 60.636828 4.222803 -6.393820 66.854773 -0.561284 -3.075392 22.145866 0.000002 -0.000000 0.000001 11.710282 -20.218086 32.317668 2.771083 -5.557350 52.977884 0.833588 -3.306149 28.295404 0.000000 -0.000000 0.000000 -25.408527 2.289921 11.697654 88.567104 5.966012 2.826546 24.938822 0.495183 -6.950482 0.222455 0.000009 -0.000003 -0.000001 -0.000000 0.000000 -13.405478 -8.938040 16.459974 32.676831 3.153739 5.491844 -12.231697 1.901850 -14.058733 -2.499286 -0.000002 -0.000001 0.000000 0.000000 0.000000 
-2.271225 187.206345 225.821106 -4.390401 1.747267 -9.906511 -2.153767 -2.827992 5.633310 3.390723 -0.173272 1.472699 3.396813 -0.207637 1.455518 -4.957753 -2.167455 1.111345 1.187902 10.325632 1.256041 0.000000 -0.000001 -0.000000 0.000000 -0.000001 -0.000000 0.000000 -0.000001 -0.000000 2.061607 -9.673693 -7.516513 -5.004233 38.467963 -77.238716 0.000001 -44.927000 0.000008 11.023401 -14.178626 38.243704 1.760817 5.999843 -20.040823 0.390877 2.291087 -19.361228 0.585428 2.783059 -23.754240 -0.000000 -0.000000 -0.000001 -3.092744 12.959498 9.011485 11.019257 22.387362 -7.034065 4.910244 7.334733 -2.946210 0.000001 -0.000001 0.000003 -0.140007 -0.327194 -9.165515 0.889884 3.390709 -29.403193 0.376812 2.250686 -19.006227 -0.000001 0.000000 -0.000000 1.238556 5.561955 -14.657470 0.933365 3.466591 -30.130140 0.033868 0.683494 -5.673186 -0.000000 0.000001 -0.000001 3.611574 11.211960 -19.351348 0.199159 -2.395889 -14.392739 0.838641 3.298322 -28.525045 -0.000001 0.000001 0.000001 1.928703 11.045706 10.257238 -3.736377 -28.669050 57.335565 0.000001 11.455347 0.000003 20.174738 15.144625 -46.589489 18.674381 -7.547839 87.134007 3.560574 -6.069988 60.759942 -0.618295 -2.648196 19.179023 -0.000001 0.000001 -0.000001 -11.856329 -13.308897 -37.589683 27.622313 -28.241599 16.984848 -2.711840 5.313210 -2.495215 0.000001 0.000004 -0.000000 2.527616 -5.415142 56.684204 4.199015 -6.383631 66.641083 2.571208 -5.401513 50.884848 0.000001 0.000000 -0.000003 15.683678 -14.934572 53.910830 3.422038 -5.990769 59.441333 -0.892181 -2.678321 18.744489 -0.000000 0.000001 0.000000 11.930525 -20.719070 32.072461 2.295500 -5.166116 47.891651 0.765753 -3.177112 27.095777 -0.000000 0.000000 -0.000001 -36.225541 -2.119667 8.307581 100.381180 6.774318 2.021329 22.758552 1.791996 2.631017 0.602840 -0.000002 0.000000 -0.000000 0.000000 -0.000000 -12.652870 -9.051881 16.691830 34.274470 3.093306 4.513476 -15.014825 2.244143 -13.792419 -3.045522 0.000002 -0.000002 -0.000000 -0.000000 -0.000000 
